<svg version="1.1" id="Ebene_1" xmlns="http://www.w3.org/2000/svg" xmlns:xlink="http://www.w3.org/1999/xlink" x="0px" y="0px"
	 width="780px" height="1240px" viewBox="0 0 780 1240" enable-background="new 0 0 780 1240" xml:space="preserve">
<path opacity="0.03" fill="#3E59B8" d="M696.65,342.88c-52.75,83.649-125.63-5.311-219.5-30.801
	c-88.72-24.109-190.09,6.03-190.09,108.511c0,90.75,132.62,113.47,198.52,134.96c98.75,32.189,204.28,70.92,256.78,167.53
	c101.33,186.479-24.01,420.909-214.42,481.289c-96.99,30.75-203.9,25.541-300.79-2.489c-35.34-10.22-240.38-87.181-211.33-133.19
	c21.51-34.069,40.53-76.279,67.21-106.43c44-78.05,132.8,23.86,238.63,53.33c66.71,18.57,174.57,14.74,204.9-61.55
	c43.62-109.73-54.87-161.971-144.221-186.591c-89.67-24.71-189.05-50.21-256.18-118.729c-66.32-67.7-87.2-172.61-72.18-264
	c34.7-211.24,232.47-296.66,443.36-272.439c94.229,10.819,192.05,48.58,262.34,113.93C764.02,250.23,709.091,319.87,696.65,342.88
	L696.65,342.88z"/>
</svg>
