<svg version="1.1" id="Ebene_1" xmlns="http://www.w3.org/2000/svg" xmlns:xlink="http://www.w3.org/1999/xlink" x="0px" y="0px"
	 width="116px" height="40px" viewBox="0 0 116 40" enable-background="new 0 0 116 40" xml:space="preserve">
<path fill="#FFFFFF" d="M58.475,14.108c-0.06,0.13-0.16,0.19-0.29,0.19c-0.1,0-0.22-0.07-0.37-0.2c-0.15-0.14-0.35-0.29-0.61-0.45
	c-0.26-0.16-0.58-0.32-0.97-0.46c-0.39-0.14-0.86-0.21-1.43-0.21c-0.57,0-1.07,0.08-1.5,0.24c-0.43,0.16-0.79,0.38-1.08,0.66
	c-0.29,0.28-0.51,0.6-0.66,0.97s-0.23,0.75-0.23,1.16c0,0.53,0.11,0.96,0.34,1.31c0.22,0.34,0.52,0.643,0.89,0.88
	c0.37,0.24,0.78,0.45,1.25,0.61c0.47,0.17,0.95,0.33,1.44,0.49c0.49,0.16,0.97,0.34,1.438,0.53c0.47,0.187,0.88,0.437,1.25,0.728
	c0.37,0.29,0.661,0.66,0.89,1.08c0.22,0.432,0.34,0.96,0.34,1.602c0,0.648-0.108,1.271-0.34,1.84c-0.22,0.58-0.55,1.08-0.97,1.5
	c-0.43,0.431-0.95,0.761-1.56,1.011c-0.62,0.25-1.32,0.37-2.11,0.37c-1.03,0-1.91-0.18-2.65-0.54s-1.39-0.86-1.95-1.49l0.31-0.478
	c0.09-0.108,0.19-0.16,0.31-0.16c0.06,0,0.15,0.039,0.25,0.132c0.1,0.09,0.23,0.198,0.38,0.327c0.15,0.134,0.32,0.271,0.53,0.424
	c0.21,0.146,0.44,0.29,0.72,0.42c0.27,0.13,0.58,0.236,0.94,0.316c0.35,0.091,0.75,0.133,1.2,0.133c0.62,0,1.17-0.09,1.65-0.278
	s0.89-0.438,1.23-0.771c0.33-0.319,0.59-0.709,0.77-1.149c0.18-0.438,0.27-0.92,0.27-1.431c0-0.549-0.11-1-0.34-1.359
	c-0.23-0.357-0.52-0.648-0.89-0.891c-0.37-0.239-0.78-0.439-1.25-0.602c-0.47-0.16-0.94-0.32-1.44-0.47
	c-0.49-0.148-0.97-0.33-1.44-0.52c-0.47-0.19-0.88-0.44-1.25-0.73s-0.66-0.67-0.89-1.11c-0.22-0.438-0.34-1-0.34-1.67
	c0-0.52,0.1-1.02,0.3-1.51c0.2-0.48,0.49-0.91,0.87-1.28c0.38-0.37,0.85-0.67,1.42-0.89c0.57-0.222,1.2-0.34,1.92-0.34
	c0.81,0,1.53,0.13,2.18,0.38c0.64,0.26,1.23,0.648,1.761,1.18l-0.289,0.51V14.108z"/>
<path fill="#FFFFFF" d="M76.324,19.998c0,1.201-0.18,2.291-0.54,3.271s-0.87,1.812-1.521,2.51c-0.649,0.69-1.43,1.229-2.34,1.603
	c-0.91,0.381-1.92,0.57-3.02,0.57c-1.09,0-2.09-0.189-3-0.57c-0.91-0.379-1.69-0.909-2.34-1.602c-0.65-0.689-1.16-1.527-1.522-2.51
	s-0.55-2.066-0.55-3.27c0-1.201,0.18-2.277,0.55-3.261c0.36-0.979,0.87-1.81,1.521-2.51c0.649-0.7,1.43-1.23,2.34-1.61
	s1.91-0.57,3-0.57c1.109,0,2.119,0.19,3.02,0.57c0.91,0.38,1.689,0.91,2.34,1.61s1.16,1.54,1.521,2.51
	c0.362,0.97,0.542,2.07,0.542,3.261V19.998z M75.154,19.998c0-1.09-0.15-2.06-0.45-2.93s-0.729-1.6-1.271-2.2
	c-0.55-0.6-1.209-1.06-1.979-1.38s-1.62-0.48-2.56-0.48c-0.92,0-1.771,0.16-2.53,0.48c-0.771,0.32-1.431,0.78-1.98,1.38
	c-0.55,0.604-0.979,1.34-1.29,2.2c-0.31,0.87-0.46,1.84-0.46,2.93s0.15,2.07,0.46,2.934c0.301,0.857,0.73,1.59,1.29,2.197
	c0.55,0.604,1.21,1.063,1.98,1.381c0.77,0.31,1.61,0.47,2.53,0.47c0.939,0,1.789-0.16,2.56-0.47c0.771-0.311,1.43-0.771,1.979-1.381
	c0.551-0.602,0.971-1.33,1.271-2.199c0.3-0.86,0.45-1.83,0.45-2.93V19.998z"/>
<path fill="#FFFFFF" d="M80.773,12.254c0.06,0.03,0.119,0.08,0.189,0.17l10.08,13.489l-0.029-13.699h0.989v15.57h-0.54
	c-0.17,0-0.3-0.07-0.41-0.224L80.934,14.055l0.029,13.73h-0.979v-15.57h0.551C80.635,12.215,80.715,12.234,80.773,12.254z"/>
<path fill="#FFFFFF" d="M98.154,27.785h-1.131v-15.57h1.131V27.785z"/>
<path fill="#FFFFFF" d="M114.494,25.165c0.07,0,0.14,0.031,0.189,0.08l0.438,0.471c-0.32,0.35-0.67,0.65-1.061,0.93
	c-0.381,0.28-0.802,0.51-1.25,0.7c-0.451,0.2-0.951,0.351-1.49,0.45c-0.541,0.109-1.131,0.16-1.779,0.16
	c-1.08,0-2.066-0.19-2.96-0.57c-0.892-0.381-1.67-0.91-2.312-1.6c-0.641-0.69-1.141-1.531-1.5-2.514
	c-0.357-0.98-0.541-2.076-0.541-3.277c0-1.184,0.19-2.264,0.563-3.23c0.37-0.98,0.894-1.811,1.563-2.511
	c0.67-0.699,1.47-1.239,2.408-1.63c0.932-0.393,1.973-0.58,3.103-0.58c0.56,0,1.079,0.04,1.55,0.131
	c0.471,0.079,0.91,0.21,1.312,0.359c0.41,0.16,0.789,0.351,1.149,0.59c0.36,0.23,0.71,0.511,1.06,0.811l-0.34,0.49
	c-0.062,0.09-0.149,0.13-0.27,0.13c-0.07,0-0.15-0.04-0.25-0.12s-0.23-0.17-0.393-0.29c-0.16-0.11-0.352-0.24-0.569-0.37
	c-0.22-0.14-0.49-0.26-0.8-0.38c-0.312-0.11-0.66-0.21-1.07-0.28c-0.4-0.08-0.859-0.12-1.38-0.12c-0.95,0-1.812,0.16-2.61,0.49
	c-0.79,0.33-1.47,0.79-2.05,1.4c-0.569,0.6-1.021,1.34-1.34,2.199c-0.32,0.86-0.479,1.83-0.479,2.897c0,1.102,0.159,2.08,0.469,2.95
	c0.32,0.87,0.75,1.603,1.314,2.188c0.562,0.59,1.221,1.062,1.98,1.379c0.76,0.32,1.58,0.48,2.468,0.48
	c0.563,0,1.053-0.04,1.489-0.109c0.44-0.068,0.841-0.181,1.211-0.33c0.369-0.148,0.709-0.33,1.021-0.541
	c0.318-0.209,0.631-0.459,0.938-0.75c0.041-0.027,0.07-0.049,0.104-0.067c0.036-0.007,0.076-0.019,0.116-0.019L114.494,25.165z"/>
<path fill="#FFFFFF" d="M38.86,18.762C34.048,6.137,28.339,0,21.383,0c-1.218,0-2.474,0.195-3.76,0.584
	c-0.087,0.02-0.282,0.049-0.419,0.14C13.016,2.156,8.778,6.179,5.543,11.788c-3.079,5.348-4.764,11.271-4.52,15.85
	C1.627,38.792,12.986,40,17.838,40c2.425,0,5.007-0.274,7.452-0.79c7.676-1.6,11.992-3.944,13.999-7.618
	C41.052,28.357,40.916,24.17,38.86,18.762z M17.555,1.179c1.305-0.419,2.601-0.633,3.838-0.633c2.153,0,4.179,0.626,6.108,1.883
	c-2.484-1.229-4.881-1.169-7.073-0.604C12.85,3.773,4.423,15.307,2.611,20.061C4.969,12.012,10.94,3.322,17.555,1.179z
	 M25.183,38.685c-2.417,0.507-4.959,0.77-7.345,0.77c-4.579,0-15.149-1.101-16.201-11.057c0.449,2.162,1.588,3.984,3.615,5.124
	c4.335,2.436,10.277,4.412,17.048,4.997c1.267,0.107,2.474,0.107,3.604,0C25.67,38.577,25.427,38.636,25.183,38.685z M34.369,29.722
	c-0.009,0.02-0.02,0.05-0.029,0.068v0.01c-0.039,0.107-0.078,0.204-0.127,0.303v0.009c-0.019,0.039-0.019,0.049-0.019,0.049
	C26.488,48.29-5.64,27.98,6.82,14.476c4.442-4.812,13.794-9.722,20.477-8.729C37,7.199,36.99,22.893,34.369,29.722z M38.812,31.329
	c-0.468,0.867-1.091,1.655-1.871,2.377c1.198-1.783,2.426-4.961,1.637-9.127c-0.653-3.459-2.192-9.771-4.414-14.565
	c1.471,2.484,2.864,5.465,4.189,8.943C40.351,24.198,40.497,28.251,38.812,31.329z"/>
</svg>
