<svg version="1.1" id="Ebene_1" xmlns="http://www.w3.org/2000/svg" xmlns:xlink="http://www.w3.org/1999/xlink" x="0px" y="0px"
	 width="116px" height="40px" viewBox="0 0 116 40" enable-background="new 0 0 116 40" xml:space="preserve">
<path fill="#333438" d="M58.412,14.111c-0.06,0.129-0.16,0.189-0.29,0.189c-0.1,0-0.22-0.07-0.37-0.2
	c-0.15-0.14-0.35-0.29-0.61-0.45c-0.26-0.16-0.58-0.32-0.97-0.459c-0.39-0.141-0.86-0.211-1.43-0.211c-0.57,0-1.07,0.08-1.5,0.24
	c-0.43,0.16-0.79,0.38-1.08,0.66c-0.29,0.279-0.51,0.6-0.66,0.97c-0.15,0.37-0.23,0.75-0.23,1.16c0,0.53,0.11,0.96,0.34,1.31
	c0.22,0.34,0.52,0.641,0.89,0.881c0.37,0.24,0.78,0.449,1.25,0.609c0.47,0.17,0.95,0.33,1.44,0.49c0.49,0.16,0.97,0.34,1.44,0.529
	c0.47,0.19,0.88,0.44,1.25,0.73c0.37,0.289,0.66,0.659,0.89,1.08c0.221,0.43,0.34,0.959,0.34,1.6c0,0.65-0.108,1.271-0.34,1.84
	c-0.22,0.58-0.549,1.08-0.97,1.5c-0.43,0.431-0.95,0.761-1.56,1.011c-0.62,0.25-1.32,0.37-2.11,0.37c-1.03,0-1.91-0.18-2.65-0.54
	c-0.74-0.36-1.39-0.86-1.95-1.489l0.31-0.479c0.09-0.11,0.19-0.16,0.31-0.16c0.06,0,0.15,0.039,0.25,0.13
	c0.1,0.09,0.23,0.2,0.38,0.329c0.15,0.131,0.32,0.271,0.53,0.421c0.21,0.148,0.44,0.29,0.72,0.42c0.27,0.131,0.58,0.239,0.94,0.319
	c0.35,0.09,0.75,0.131,1.2,0.131c0.62,0,1.17-0.09,1.65-0.28c0.48-0.189,0.89-0.439,1.23-0.771c0.33-0.319,0.59-0.71,0.77-1.149
	c0.18-0.439,0.27-0.92,0.27-1.431c0-0.55-0.11-1-0.34-1.359c-0.23-0.358-0.52-0.649-0.89-0.891c-0.37-0.239-0.78-0.438-1.25-0.601
	c-0.47-0.16-0.94-0.319-1.44-0.47c-0.49-0.149-0.97-0.33-1.44-0.521c-0.47-0.189-0.88-0.439-1.25-0.729s-0.66-0.67-0.89-1.11
	c-0.22-0.439-0.34-1-0.34-1.67c0-0.52,0.1-1.02,0.3-1.51c0.2-0.48,0.49-0.91,0.87-1.28s0.85-0.67,1.42-0.89
	c0.57-0.221,1.2-0.34,1.92-0.34c0.81,0,1.53,0.13,2.18,0.38c0.64,0.26,1.23,0.649,1.759,1.18L58.412,14.111z"/>
<path fill="#333438" d="M76.262,19.999c0,1.201-0.18,2.291-0.539,3.271c-0.361,0.98-0.871,1.811-1.521,2.51
	c-0.649,0.691-1.43,1.229-2.34,1.602c-0.91,0.379-1.92,0.57-3.021,0.57c-1.09,0-2.09-0.191-3-0.57
	c-0.909-0.381-1.69-0.91-2.34-1.602c-0.649-0.689-1.16-1.529-1.521-2.51c-0.359-0.979-0.551-2.069-0.551-3.271
	c0-1.199,0.18-2.279,0.551-3.26c0.359-0.98,0.869-1.81,1.521-2.51c0.649-0.7,1.431-1.23,2.34-1.609c0.91-0.381,1.91-0.57,3-0.57
	c1.109,0,2.12,0.189,3.021,0.57c0.91,0.379,1.689,0.909,2.34,1.609s1.16,1.54,1.521,2.51C76.082,17.709,76.262,18.81,76.262,19.999z
	 M75.092,19.999c0-1.09-0.15-2.06-0.449-2.93c-0.301-0.869-0.729-1.6-1.271-2.199c-0.552-0.601-1.21-1.061-1.979-1.381
	c-0.771-0.32-1.621-0.48-2.561-0.48c-0.92,0-1.771,0.16-2.53,0.48c-0.771,0.32-1.43,0.78-1.979,1.381
	c-0.551,0.6-0.979,1.34-1.29,2.199c-0.31,0.87-0.46,1.84-0.46,2.93s0.15,2.07,0.46,2.931c0.301,0.859,0.729,1.59,1.29,2.199
	c0.551,0.602,1.21,1.061,1.979,1.379c0.771,0.312,1.61,0.473,2.53,0.473c0.939,0,1.79-0.16,2.561-0.473
	c0.771-0.309,1.43-0.77,1.979-1.379c0.55-0.6,0.97-1.33,1.271-2.199C74.941,22.068,75.092,21.099,75.092,19.999z"/>
<path fill="#333438" d="M80.712,12.254c0.06,0.031,0.12,0.08,0.188,0.171l10.08,13.489l-0.029-13.699h0.99v15.57H91.4
	c-0.17,0-0.299-0.07-0.409-0.221l-10.119-13.51l0.028,13.73h-0.979V12.214h0.551C80.57,12.215,80.65,12.234,80.712,12.254z"/>
<path fill="#333438" d="M98.092,27.785h-1.131v-15.57h1.131V27.785z"/>
<path fill="#333438" d="M114.432,25.164c0.07,0,0.141,0.031,0.189,0.08l0.439,0.471c-0.319,0.35-0.67,0.65-1.06,0.93
	c-0.381,0.28-0.801,0.51-1.25,0.701c-0.451,0.199-0.951,0.35-1.489,0.449c-0.541,0.109-1.132,0.16-1.781,0.16
	c-1.08,0-2.068-0.189-2.959-0.57c-0.892-0.381-1.67-0.91-2.312-1.6c-0.64-0.689-1.14-1.531-1.5-2.512
	c-0.358-0.979-0.539-2.078-0.539-3.279c0-1.18,0.188-2.26,0.56-3.229c0.371-0.979,0.891-1.81,1.561-2.511
	c0.67-0.699,1.471-1.239,2.41-1.629c0.93-0.391,1.971-0.58,3.1-0.58c0.561,0,1.08,0.039,1.551,0.13
	c0.471,0.079,0.91,0.21,1.312,0.36c0.409,0.16,0.789,0.35,1.149,0.59c0.359,0.229,0.709,0.51,1.06,0.81l-0.34,0.49
	c-0.062,0.09-0.15,0.13-0.271,0.13c-0.07,0-0.15-0.04-0.25-0.12s-0.229-0.17-0.391-0.29c-0.16-0.109-0.35-0.24-0.57-0.37
	c-0.219-0.14-0.488-0.26-0.799-0.38c-0.311-0.109-0.66-0.21-1.07-0.279c-0.399-0.08-0.859-0.121-1.381-0.121
	c-0.949,0-1.81,0.16-2.609,0.49c-0.789,0.33-1.469,0.79-2.049,1.4c-0.57,0.6-1.021,1.34-1.342,2.199
	c-0.318,0.86-0.479,1.83-0.479,2.9c0,1.1,0.16,2.081,0.47,2.95c0.319,0.871,0.75,1.602,1.312,2.19
	c0.561,0.589,1.22,1.06,1.979,1.379c0.76,0.32,1.58,0.479,2.47,0.479c0.561,0,1.051-0.039,1.489-0.108
	c0.44-0.069,0.84-0.181,1.211-0.33c0.369-0.149,0.709-0.33,1.021-0.541c0.319-0.209,0.629-0.459,0.938-0.75
	c0.041-0.028,0.07-0.049,0.101-0.069C114.352,25.175,114.393,25.164,114.432,25.164L114.432,25.164z"/>
<linearGradient id="SVGID_1_" gradientUnits="userSpaceOnUse" x1="1024.1357" y1="-786.8252" x2="1032.4856" y2="-817.3572" gradientTransform="matrix(1 0 0 -1 -1007.9004 -776.5996)">
	<stop  offset="0" style="stop-color:#FC7C55"/>
	<stop  offset="0.889" style="stop-color:#F95B60"/>
	<stop  offset="1" style="stop-color:#F95762"/>
</linearGradient>
<path fill="url(#SVGID_1_)" d="M38.798,18.763C33.986,6.138,28.277,0,21.321,0c-1.218,0-2.474,0.195-3.76,0.584
	c-0.087,0.021-0.282,0.05-0.419,0.138C12.954,2.154,8.716,6.178,5.481,11.788c-3.079,5.349-4.764,11.271-4.52,15.851
	C1.565,38.793,12.924,40,17.776,40c2.425,0,5.007-0.273,7.452-0.79c7.676-1.598,11.992-3.944,13.999-7.618
	C40.99,28.358,40.854,24.17,38.798,18.763L38.798,18.763z M17.493,1.18c1.305-0.42,2.601-0.632,3.838-0.632
	c2.153,0,4.179,0.623,6.108,1.88c-2.484-1.227-4.881-1.169-7.073-0.604C12.788,3.772,4.361,15.307,2.549,20.061
	C4.907,12.013,10.878,3.323,17.493,1.18z M25.121,38.686c-2.416,0.508-4.959,0.771-7.345,0.771c-4.579,0-15.149-1.102-16.201-11.058
	c0.448,2.162,1.588,3.984,3.614,5.124c4.335,2.436,10.278,4.412,17.048,4.997c1.267,0.107,2.475,0.107,3.605,0
	C25.608,38.577,25.365,38.637,25.121,38.686z M34.307,29.722c-0.009,0.021-0.02,0.05-0.029,0.068v0.01
	c-0.039,0.107-0.078,0.205-0.126,0.304v0.009c-0.02,0.039-0.02,0.049-0.02,0.049C26.426,48.291-5.702,27.98,6.758,14.477
	C11.2,9.665,20.552,4.755,27.235,5.749C36.938,7.2,36.928,22.895,34.307,29.722z M38.75,31.33c-0.468,0.867-1.091,1.655-1.871,2.376
	c1.198-1.782,2.426-4.958,1.637-9.126c-0.653-3.46-2.192-9.771-4.414-14.565c1.471,2.485,2.864,5.466,4.189,8.944
	C40.289,24.2,40.435,28.253,38.75,31.33z"/>
</svg>
