<svg version="1.1" id="Ebene_1" xmlns="http://www.w3.org/2000/svg" xmlns:xlink="http://www.w3.org/1999/xlink" x="0px" y="0px"
	 width="1190px" height="1014px" viewBox="0 0 1190 1014" enable-background="new 0 0 1190 1014" xml:space="preserve">
<path opacity="0.03" fill="#3E59B8" enable-background="new    " d="M428.79,966.25c-96.12,30.48-202.07,25.31-298.1-2.47
	C112.94,958.65,52.03,936.54,0,910.04V710.22c46.64-44.51,128.44,42.24,224.35,68.931c66.11,18.399,173.01,14.609,203.07-61
	c43.23-108.75-54.38-160.521-142.93-184.92C195.62,508.74,97.13,483.47,30.6,415.56C19.02,403.74,8.84,390.78,0,376.94V39.64
	C8.51,25.46,18.08,12.24,28.59,0h630.101c-0.29,26.22-50.881,90.61-62.69,112.48c-52.28,82.9-124.51-5.26-217.54-30.52
	c-87.93-23.9-188.39,5.97-188.39,107.53c0,89.94,131.43,112.45,196.74,133.75c97.86,31.9,202.45,70.28,254.48,166.03
	C741.71,674.08,617.5,906.41,428.79,966.25z"/>
</svg>
