<svg version="1.1" id="Ebene_1" xmlns="http://www.w3.org/2000/svg" xmlns:xlink="http://www.w3.org/1999/xlink" x="0px" y="0px"
	 width="107px" height="82px" viewBox="0 0 107 82" enable-background="new 0 0 107 82" xml:space="preserve">
<path fill="#262626" d="M2.81,35.759c9.469-3.104,10.463-0.129,10.463,4.268v12.542h-2.897V41.018c0-3.579-0.303-4.741-7.479-2.155
	V52.57H0V34.465h2.377L2.81,35.759z"/>
<path fill="#262626" d="M30.954,43.518c0-5.345-1.167-6.596-4.366-6.596c-3.2,0-4.368,1.249-4.368,6.596
	c0,5.392,1.168,6.596,4.368,6.596C29.787,50.111,30.954,48.904,30.954,43.518z M33.852,43.518c0,6.51-1.257,9.482-7.264,9.482
	c-6.01,0-7.265-2.975-7.265-9.482c0-6.467,1.255-9.479,7.265-9.479C32.595,34.035,33.852,37.051,33.852,43.518z"/>
<path fill="#262626" d="M49.328,37.311c-1.771,0.087-3.156,0.388-6.095,1.509v13.749h-2.897V34.465h2.378l0.432,1.25
	c2.379-0.861,3.978-1.25,6.183-1.25L49.328,37.311z"/>
<path fill="#262626" d="M66.189,52.05c-8.127,1.729-8.994-0.946-8.994-5.041v-9.655H54.95v-2.888h2.245V28h2.896v6.465h4.8v2.889
	h-4.8v8.835c0,3.104,0.437,4.096,5.576,3.104L66.189,52.05z"/>
<path fill="#262626" d="M84.348,43.518c0-5.345-1.166-6.596-4.367-6.596c-3.195,0-4.363,1.249-4.363,6.596
	c0,5.392,1.168,6.596,4.363,6.596C83.182,50.111,84.348,48.904,84.348,43.518z M87.243,43.518c0,6.51-1.257,9.482-7.265,9.482
	c-6.013,0-7.266-2.975-7.266-9.482c0-6.467,1.253-9.479,7.266-9.479C85.986,34.035,87.243,37.051,87.243,43.518z"/>
<path fill="#262626" d="M96.537,35.759C106.007,32.656,107,35.63,107,40.026v12.542h-2.896V41.018c0-3.579-0.302-4.741-7.479-2.155
	V52.57h-2.896V34.465h2.381L96.537,35.759z"/>
</svg>
