<svg version="1.1" id="Ebene_1" xmlns="http://www.w3.org/2000/svg" xmlns:xlink="http://www.w3.org/1999/xlink" x="0px" y="0px"
	 width="100px" height="82px" viewBox="0 0 100 82" enable-background="new 0 0 100 82" xml:space="preserve">
<rect y="21" fill="#262626" width="1.916" height="39.494"/>
<path fill="#262626" d="M7.413,60.494V34.787h1.915v25.708L7.413,60.494z M7.154,26.076c0-0.844,0.41-1.262,1.229-1.262
	c0.391,0,0.702,0.104,0.932,0.313c0.229,0.211,0.346,0.527,0.346,0.947c0,0.319-0.107,0.597-0.32,0.833
	c-0.214,0.234-0.533,0.353-0.957,0.353c-0.395,0-0.693-0.117-0.908-0.353C7.264,26.673,7.154,26.396,7.154,26.076z"/>
<path fill="#262626" d="M22.909,60.494h-1.916V39.257c0-0.773-0.218-1.432-0.652-1.97c-0.434-0.539-1.053-0.812-1.853-0.812h-2.53
	v24.018h-1.917V34.787h4.445c0.716,0,1.35,0.115,1.904,0.342c0.553,0.228,1.017,0.547,1.393,0.96c0.373,0.413,0.654,0.9,0.843,1.463
	c0.187,0.565,0.281,1.175,0.281,1.83v21.112H22.909z"/>
<path fill="#262626" d="M34.791,38.877c0-0.102-0.014-0.284-0.037-0.555s-0.115-0.539-0.271-0.81
	c-0.149-0.271-0.398-0.511-0.739-0.72c-0.341-0.211-0.826-0.315-1.456-0.315h-2.53v20.074c0,0.775,0.218,1.428,0.654,1.958
	c0.433,0.528,1.06,0.798,1.877,0.798c0.802,0,1.418-0.27,1.854-0.798c0.433-0.528,0.648-1.182,0.648-1.958V38.877L34.791,38.877z
	 M36.709,56.376c0,0.658-0.093,1.269-0.282,1.83c-0.187,0.565-0.468,1.053-0.843,1.466c-0.374,0.414-0.838,0.736-1.393,0.973
	c-0.555,0.233-1.188,0.354-1.903,0.354c-0.733,0-1.376-0.119-1.929-0.354c-0.553-0.23-1.019-0.559-1.394-0.973
	c-0.374-0.413-0.655-0.898-0.843-1.466c-0.188-0.562-0.282-1.172-0.282-1.83V34.787h4.345c0.648,0,1.166,0.047,1.561,0.14
	c0.393,0.093,0.74,0.225,1.046,0.393V21.001h1.92L36.709,56.376z"/>
<path fill="#262626" d="M40.195,54.659h1.918v1.894c0,0.775,0.219,1.426,0.652,1.958c0.435,0.528,1.061,0.796,1.879,0.796
	c0.801,0,1.418-0.268,1.853-0.796c0.437-0.528,0.653-1.182,0.653-1.958v-3.181c0-0.556-0.09-1.072-0.27-1.554
	c-0.179-0.479-0.418-0.943-0.716-1.391c-0.299-0.445-0.64-0.871-1.022-1.273c-0.386-0.404-0.772-0.811-1.164-1.213
	c-0.477-0.473-0.939-0.947-1.392-1.438c-0.453-0.485-0.856-1.007-1.215-1.554c-0.356-0.549-0.644-1.125-0.854-1.729
	c-0.213-0.604-0.32-1.267-0.32-1.974V38.9c0-0.675,0.095-1.293,0.283-1.855c0.185-0.563,0.467-1.051,0.843-1.464
	c0.375-0.414,0.839-0.733,1.391-0.959c0.554-0.229,1.197-0.343,1.933-0.343c0.715,0,1.35,0.117,1.901,0.343
	c0.552,0.228,1.019,0.547,1.392,0.959c0.375,0.414,0.654,0.899,0.845,1.464c0.185,0.564,0.28,1.184,0.28,1.855v2.071h-1.916V38.75
	c0-0.775-0.219-1.432-0.654-1.973c-0.434-0.536-1.053-0.808-1.852-0.808c-0.819,0-1.445,0.271-1.879,0.808
	c-0.435,0.541-0.652,1.196-0.652,1.973v2.5c0,0.574,0.094,1.105,0.283,1.604c0.187,0.496,0.432,0.965,0.728,1.4
	c0.298,0.438,0.64,0.863,1.021,1.275c0.385,0.412,0.771,0.82,1.162,1.227c0.479,0.486,0.942,0.979,1.394,1.463
	c0.45,0.489,0.853,1.002,1.2,1.543c0.351,0.538,0.631,1.105,0.845,1.706c0.214,0.599,0.317,1.233,0.317,1.905v3.003
	c0,0.657-0.096,1.271-0.279,1.831c-0.19,0.564-0.471,1.052-0.846,1.468c-0.373,0.412-0.84,0.736-1.392,0.976
	C45.99,60.884,45.355,61,44.641,61c-0.731,0-1.375-0.116-1.929-0.352c-0.553-0.236-1.019-0.562-1.392-0.979
	c-0.375-0.416-0.656-0.896-0.844-1.468c-0.188-0.562-0.281-1.175-0.281-1.831V54.659z"/>
<path fill="#262626" d="M53.012,36.479h-2.119v-1.69h2.119v-3.182h1.918v3.182h3.502v1.69H54.93v20.048
	c0,0.771,0.213,1.43,0.641,1.957c0.425,0.529,1.049,0.799,1.863,0.799h0.842v1.716h-0.842c-0.729,0-1.375-0.119-1.931-0.354
	c-0.553-0.229-1.013-0.56-1.377-0.972c-0.364-0.414-0.646-0.897-0.83-1.465c-0.188-0.562-0.28-1.175-0.28-1.831V36.479H53.012z"/>
<path fill="#262626" d="M67.578,36.328c-0.253-0.068-0.562-0.103-0.92-0.103c-0.818,0-1.441,0.271-1.879,0.811
	c-0.438,0.538-0.649,1.194-0.649,1.968v21.49h-1.919V39.156c0-0.674,0.092-1.292,0.28-1.855c0.188-0.563,0.47-1.053,0.847-1.465
	c0.372-0.413,0.837-0.732,1.393-0.96s1.192-0.341,1.93-0.341c0.309,0,0.604,0.021,0.896,0.062c0.285,0.043,0.555,0.105,0.791,0.188
	L67.578,36.328z"/>
<path fill="#262626" d="M77.43,29.105c0-0.841,0.426-1.264,1.279-1.264c0.816,0,1.227,0.423,1.227,1.264
	c0,0.319-0.1,0.597-0.293,0.834c-0.199,0.234-0.51,0.353-0.934,0.353c-0.407,0-0.729-0.117-0.947-0.353
	C77.54,29.703,77.43,29.427,77.43,29.105z M72.521,56.527c0,0.775,0.22,1.432,0.648,1.973c0.438,0.537,1.062,0.809,1.879,0.809
	c0.805,0,1.422-0.306,1.854-0.918c0.437-0.611,0.65-1.354,0.65-2.234V35.977H75.05c-0.819,0-1.44,0.271-1.88,0.81
	c-0.431,0.54-0.65,1.195-0.65,1.97v17.771H72.521z M70.784,29.105c0-0.841,0.407-1.264,1.228-1.264c0.818,0,1.225,0.423,1.225,1.264
	c0,0.319-0.104,0.597-0.307,0.834c-0.203,0.235-0.515,0.353-0.924,0.353c-0.391,0-0.693-0.117-0.906-0.353
	C70.893,29.703,70.784,29.427,70.784,29.105z M79.475,55.896c0,0.742-0.094,1.424-0.281,2.047c-0.187,0.623-0.469,1.162-0.844,1.613
	c-0.375,0.45-0.841,0.812-1.395,1.062c-0.555,0.254-1.193,0.378-1.928,0.378c-0.731,0-1.373-0.112-1.928-0.341
	c-0.56-0.229-1.021-0.549-1.385-0.959c-0.359-0.411-0.642-0.9-0.824-1.465c-0.189-0.562-0.281-1.187-0.281-1.855v-17.5
	c0-0.656,0.094-1.266,0.281-1.83c0.187-0.563,0.469-1.053,0.844-1.464c0.375-0.413,0.836-0.733,1.394-0.959
	c0.554-0.228,1.196-0.342,1.927-0.342h4.422L79.475,55.896z"/>
<path fill="#262626" d="M92.951,60.494H91.16V39.257c0-0.857-0.215-1.538-0.637-2.032c-0.428-0.498-1.053-0.746-1.865-0.746h-2.583
	v24.017H84.16V34.787h4.421c0.767,0,1.444,0.131,2.044,0.393c0.593,0.263,1.075,0.609,1.43,1.047
	c0.375-0.42,0.863-0.766,1.471-1.034c0.604-0.271,1.279-0.404,2.027-0.404H100v25.708h-1.918V36.479h-2.605
	c-0.817,0-1.441,0.25-1.877,0.746c-0.438,0.496-0.649,1.175-0.649,2.032L92.951,60.494L92.951,60.494z"/>
</svg>
