<svg version="1.1" id="Ebene_1" xmlns="http://www.w3.org/2000/svg" xmlns:xlink="http://www.w3.org/1999/xlink" x="0px" y="0px"
	 width="78px" height="82px" viewBox="0.5 82.5 78 82" enable-background="new 0.5 82.5 78 82" xml:space="preserve">
<polygon fill="#262626" points="13.247,108.5 13.247,111.919 3.929,111.919 3.929,119.997 13.248,119.997 13.248,123.416
	3.929,123.416 3.929,134.928 0.5,134.928 0.5,108.5 "/>
<path fill="#262626" d="M21.393,111.641c0.473,0.463,0.71,1.029,0.71,1.7c0,0.673-0.237,1.238-0.71,1.7
	c-0.476,0.463-1.043,0.695-1.706,0.695c-0.65,0-1.215-0.23-1.689-0.695c-0.475-0.462-0.712-1.027-0.712-1.7
	c0-0.671,0.237-1.237,0.712-1.7c0.474-0.463,1.037-0.693,1.689-0.693C20.35,110.943,20.917,111.174,21.393,111.641z M16.127,135.098
	c1.237-0.137,1.857-0.518,1.857-1.154v-16.01h3.424v15.977c0,2.785-1.759,4.312-5.281,4.592V135.098z"/>
<path fill="#262626" d="M31.333,121.796c-1.153,1.156-1.733,2.544-1.733,4.163c0,1.629,0.58,3.018,1.733,4.162
	c1.15,1.146,2.546,1.721,4.18,1.721c1.63,0,3.029-0.572,4.177-1.721c1.154-1.146,1.731-2.533,1.731-4.162
	c0-1.619-0.575-3.007-1.731-4.163c-1.147-1.153-2.546-1.731-4.177-1.731C33.879,120.062,32.482,120.643,31.333,121.796z
	 M35.513,116.545c2.6,0,4.822,0.918,6.663,2.756c1.836,1.844,2.752,4.059,2.752,6.658c0,2.602-0.916,4.822-2.752,6.658
	c-1.841,1.84-4.062,2.76-6.663,2.76c-2.597,0-4.814-0.92-6.66-2.76c-1.841-1.836-2.761-4.061-2.761-6.658
	c0-2.602,0.92-4.814,2.761-6.658C30.7,117.463,32.918,116.545,35.513,116.545z"/>
<path fill="#262626" d="M52.333,120.229c1.272-1.729,2.849-2.636,4.713-2.725v3.553c-1.247,0.064-2.241,0.471-2.981,1.205
	c-1.107,1.1-1.689,2.408-1.732,3.932v8.736h-3.43v-16.996h3.43L52.333,120.229L52.333,120.229z"/>
<path fill="#262626" d="M75.057,127.232v-2.529c-0.199-1.062-0.73-2.035-1.604-2.907c-1.148-1.153-2.533-1.731-4.174-1.731
	c-1.633,0-3.025,0.576-4.178,1.731c-1.149,1.155-1.729,2.543-1.729,4.163c0,1.629,0.571,3.018,1.729,4.162
	c1.149,1.146,2.545,1.721,4.178,1.721c1.641,0,3.025-0.572,4.174-1.721C74.32,129.26,74.857,128.287,75.057,127.232z
	 M75.057,119.104V108.5H78.5v26.43h-3.443v-2.111c-1.654,1.707-3.58,2.562-5.777,2.562c-2.604,0-4.818-0.92-6.657-2.76
	c-1.838-1.836-2.761-4.062-2.761-6.658c0-2.603,0.923-4.812,2.761-6.655c1.841-1.839,4.06-2.758,6.657-2.758
	C71.477,116.545,73.4,117.396,75.057,119.104z"/>
</svg>
