<svg version="1.1" id="Ebene_1" xmlns="http://www.w3.org/2000/svg" xmlns:xlink="http://www.w3.org/1999/xlink" x="0px" y="0px"
	 width="145px" height="82px" viewBox="0 0 145 82" enable-background="new 0 0 145 82" xml:space="preserve">
<polygon fill="#262626" points="0,52.998 0,29 16.048,29 16.048,33.1 4.641,33.1 4.641,39.27 14.124,39.27 14.124,43.062
	4.641,43.062 4.641,53 "/>
<path fill="#262626" d="M28.893,40.859h5.819c0.422,0,0.823-0.097,1.19-0.306c0.371-0.189,0.69-0.471,0.961-0.821
	c0.271-0.353,0.482-0.752,0.641-1.238c0.154-0.471,0.234-0.982,0.234-1.521c0-0.562-0.09-1.08-0.271-1.552
	c-0.174-0.47-0.422-0.888-0.724-1.237c-0.304-0.352-0.647-0.612-1.044-0.803c-0.391-0.188-0.786-0.281-1.19-0.281h-5.616V40.859z
	 M24.249,52.998V29h10.558c1.101,0,2.119,0.234,3.051,0.7c0.93,0.45,1.729,1.06,2.404,1.823c0.672,0.756,1.195,1.603,1.582,2.562
	c0.379,0.959,0.566,1.921,0.566,2.886c0,1.563-0.381,2.974-1.162,4.24c-0.773,1.284-1.824,2.199-3.139,2.764l5.611,9.021h-5.248
	l-5.006-8.04h-4.574v8.04L24.249,52.998z"/>
<rect x="51.969" y="29.037" fill="#262626" width="4.643" height="23.961"/>
<path fill="#262626" d="M82.395,40.957c0-1.133-0.146-2.205-0.468-3.169c-0.308-0.964-0.771-1.804-1.378-2.505
	c-0.605-0.701-1.354-1.241-2.238-1.619c-0.889-0.377-1.891-0.564-3.009-0.564h-4.036v15.8h4.037c1.143,0,2.166-0.191,3.051-0.608
	c0.89-0.401,1.614-0.961,2.217-1.668c0.593-0.705,1.056-1.547,1.357-2.511C82.25,43.135,82.395,42.1,82.395,40.957z M66.625,52.998
	V29h8.677c1.958,0,3.663,0.318,5.132,0.939c1.471,0.633,2.701,1.495,3.688,2.575c0.979,1.078,1.728,2.347,2.216,3.797
	c0.492,1.455,0.744,3.003,0.744,4.646c0,1.826-0.273,3.486-0.834,4.962c-0.54,1.479-1.333,2.726-2.359,3.778
	c-1.027,1.052-2.265,1.869-3.713,2.436c-1.443,0.582-3.072,0.865-4.869,0.865H66.625z"/>
<path fill="#262626" d="M103.854,34.038l-3.43,9.702h6.766L103.854,34.038z M92.562,52.998L101.965,29h3.775l9.383,23.998h-4.906
	l-2.188-5.994h-8.373l-2.189,5.994H92.562z"/>
<polygon fill="#262626" points="122.838,29 128.716,40.557 134.712,29 139.709,29 131.031,44.609 131.031,52.998 126.43,52.998
	126.43,44.541 117.781,29 "/>
<path fill="#262626" d="M145,50.447c0,1.404-1.141,2.553-2.54,2.553s-2.521-1.146-2.521-2.553c0-1.405,1.121-2.536,2.521-2.536
	C143.857,47.911,145,49.042,145,50.447z"/>
</svg>
