<svg version="1.1" id="Ebene_1" xmlns="http://www.w3.org/2000/svg" xmlns:xlink="http://www.w3.org/1999/xlink" x="0px" y="0px"
	 width="100px" height="82px" viewBox="0.5 82.5 100 82" enable-background="new 0.5 82.5 100 82" xml:space="preserve">
<path fill="#262626" d="M12.586,138.512h4.194c2.193,0,3.814-0.406,4.869-1.223c1.262-0.969,1.893-2.598,1.893-4.9
	c0-2.537-0.518-4.33-1.554-5.371c-1.037-1.045-2.758-1.562-5.161-1.562h-2.164c-0.631,0-1.099,0.045-1.397,0.137
	c-0.302,0.095-0.49,0.279-0.564,0.563c-0.075,0.287-0.113,0.871-0.113,1.75L12.586,138.512z M30.92,147.611v1.484
	c0,1.773-0.167,3.006-0.5,3.695c-0.546,1.141-1.623,1.709-3.229,1.709c-2.092,0-3.474-0.777-4.143-2.342
	c-0.546-1.264-0.818-3.662-0.818-7.205v-0.949c0-0.303,0.015-0.613,0.044-0.943c0-1.59-0.375-2.666-1.127-3.223
	c-0.751-0.557-1.832-0.834-3.244-0.834h-5.318v12.104c0,0.902,0.052,1.479,0.158,1.722c0.105,0.237,0.333,0.432,0.679,0.562
	c0.347,0.137,1.055,0.223,2.126,0.248c1.072,0.028,2.196,0.045,3.374,0.045v0.403H0.5v-0.448c3.168,0,5.07-0.119,5.704-0.359
	c0.301-0.119,0.513-0.293,0.634-0.521c0.12-0.229,0.182-0.771,0.182-1.646v-23.219c0-0.843-0.062-1.371-0.182-1.584
	c-0.061-0.119-0.256-0.238-0.588-0.357c-0.876-0.334-2.792-0.5-5.75-0.5v-0.406h18.516c3.259,0,5.855,0.873,7.787,2.615
	c1.54,1.387,2.308,2.812,2.308,4.287c0,1.746-0.605,3.174-1.817,4.287c-1.456,1.352-3.758,2.213-6.91,2.57
	c3.217,0.631,5.342,2.411,6.375,5.354c0.519,1.473,0.779,3.688,0.779,6.656c0,0.871,0.077,1.502,0.229,1.887
	c0.152,0.395,0.521,0.59,1.098,0.59c0.642,0,1.085-0.506,1.33-1.508c0.244-1.008,0.366-2.396,0.366-4.172h0.36V147.611
	L30.92,147.611z"/>
<path fill="#262626" d="M47.921,143.469L43.783,132l-4.136,11.469H47.921z M48.147,143.967h-8.723l-1.395,3.979
	c-0.359,0.996-0.539,1.854-0.539,2.58c0,1.115,0.422,1.916,1.267,2.396c0.846,0.48,2.038,0.725,3.577,0.725v0.451h-11.5v-0.453
	c2.083,0,3.698-0.779,4.845-2.342c0.634-0.873,1.447-2.676,2.446-5.412l7.65-21.205h0.905l9.778,26.438
	c0.45,1.229,0.902,1.963,1.355,2.19c0.451,0.228,1.812,0.338,4.069,0.338v0.449h-16.7v-0.451c2.262,0,3.818-0.082,4.663-0.248
	c0.846-0.166,1.269-0.506,1.269-1.018l-0.092-0.451L48.147,143.967z"/>
<path fill="#262626" d="M77.057,132.342l-5.72,21.936h-1.539l-9.959-26.301c-0.453-1.231-0.914-1.963-1.386-2.19
	c-0.469-0.228-1.74-0.339-3.821-0.339v-0.403H70.07v0.403c-1.84,0-3.116,0.099-3.825,0.294c-0.711,0.192-1.062,0.577-1.062,1.147
	c0,0.307,0.092,0.664,0.271,1.088l7.104,18.912l4.135-15.676l-0.965-3.223c-0.365-1.215-0.807-1.939-1.324-2.184
	c-0.519-0.236-1.844-0.355-3.977-0.355v-0.408h15.505v0.404c-1.833,0-3.105,0.098-3.813,0.293c-0.705,0.195-1.059,0.607-1.059,1.244
	c0,0.33,0.062,0.66,0.186,0.992l5.848,18.959l4.98-14.035c0.51-1.474,0.766-2.681,0.766-3.607c0-2.561-1.811-3.84-5.433-3.84v-0.406
	H99.09v0.406c-2.146,0-3.731,1.096-4.758,3.293c-0.147,0.334-0.711,1.805-1.672,4.42l-7.424,21.111h-1.494L77.057,132.342z"/>
<path fill="#262626" d="M60.173,114.347l4.138-15.677l-0.969-3.224c-0.365-1.211-0.805-1.937-1.324-2.178
	c-0.515-0.242-1.843-0.363-3.975-0.363v-0.404h15.507v0.404c-1.836,0-3.104,0.1-3.812,0.293c-0.707,0.195-1.059,0.609-1.059,1.242
	c0,0.332,0.062,0.662,0.187,0.992l5.84,18.959l4.984-14.035c0.508-1.476,0.767-2.681,0.767-3.613c0-2.557-1.812-3.835-5.433-3.835
	v-0.407h11.681v0.404c-2.146,0-3.729,1.099-4.756,3.294c-0.146,0.331-0.709,1.805-1.672,4.421l-7.424,21.114h-1.492l-6.692-21.938
	l-5.72,21.938h-1.539l-9.959-26.302c-0.453-1.23-0.912-1.961-1.38-2.188c-0.468-0.228-1.744-0.338-3.825-0.338v-0.405h15.438v0.404
	c-1.837,0-3.113,0.1-3.818,0.293c-0.715,0.195-1.064,0.58-1.064,1.15c0,0.303,0.092,0.662,0.27,1.084"/>
<path fill="#262626" d="M87.236,104.813c1.047-0.455,1.797-1.151,2.252-2.09c0.38-0.777,0.562-1.781,0.562-3.015
	c0-0.75-0.188-1.399-0.586-1.952c-0.396-0.549-0.919-0.822-1.591-0.822c-0.938,0-1.649,0.295-2.131,0.885
	c-0.482,0.592-0.727,1.248-0.727,1.971c0,0.562,0.104,1.029,0.319,1.404L87.236,104.813z M89.648,117.736l-5.821-11.312
	c-1.051,0.297-1.835,0.701-2.346,1.213c-0.694,0.672-1.2,1.723-1.496,3.15c-0.104,0.513-0.159,1.104-0.159,1.777
	c0,1.104,0.151,2.177,0.469,3.213c0.31,1.037,0.749,1.96,1.31,2.767c0.682,1.023,1.355,1.791,2.047,2.301
	c0.685,0.516,1.343,0.768,1.961,0.768c0.729,0,1.425-0.336,2.084-1.012C88.346,119.932,88.998,118.977,89.648,117.736z
	 M94.546,118.91c0.399,0.779,0.824,1.293,1.271,1.533c0.443,0.242,0.949,0.363,1.518,0.363c0.914,0,1.521-0.518,1.812-1.553
	c0.297-1.033,0.441-2.772,0.441-5.218h0.525c0,3.294-0.188,5.427-0.57,6.397c-0.68,1.702-2.219,2.551-4.639,2.551
	c-1.385,0-2.579-0.73-3.577-2.196c-0.218-0.324-0.688-1.165-1.429-2.521c-0.922,1.732-1.869,2.928-2.848,3.58
	c-1.167,0.762-2.846,1.141-5.047,1.141c-1.3,0-2.46-0.619-3.487-1.856c-1.108-1.347-1.666-3.003-1.666-4.969
	c0-0.754,0.064-1.469,0.201-2.141c0.141-0.674,0.395-1.431,0.771-2.263c0.705-1.644,1.564-2.942,2.582-3.897
	c1.017-0.954,2.066-1.555,3.152-1.797c-0.305-0.539-0.543-1.125-0.723-1.758c-0.184-0.634-0.271-1.312-0.271-2.041
	c0-1.43,0.44-2.731,1.324-3.918c0.889-1.185,2.045-1.777,3.491-1.777c1.301,0,2.332,0.322,3.102,0.971
	c0.764,0.646,1.139,1.561,1.139,2.747c0,1.077-0.436,2.062-1.305,2.948c-0.731,0.756-1.726,1.389-2.979,1.896l4.523,8.623l2.5-4.414
	c0.514-0.94,0.768-1.634,0.768-2.062c0-0.596-0.344-0.991-1.021-1.194c-0.683-0.202-1.82-0.306-3.427-0.306v-0.402h9.823v0.402
	c-1.137,0-2.129,0.209-2.982,0.628c-0.854,0.418-1.541,1.098-2.052,2.038l-3.327,6.02L94.546,118.91z"/>
</svg>
