<svg version="1.1" id="Ebene_1" xmlns="http://www.w3.org/2000/svg" xmlns:xlink="http://www.w3.org/1999/xlink" x="0px" y="0px"
	 width="79px" height="82px" viewBox="0.5 82.5 79 82" enable-background="new 0.5 82.5 79 82" xml:space="preserve">
<path fill="#343434" d="M27.84,112.997h-6.06v5.1h7.17v3.23H17.9v-19.25h11.03v3.24h-7.14v4.55h6.06v3.13H27.84z"/>
<path fill="#343434" d="M37.45,116.037l3.24-13.96h4.34l-5.55,19.25h-4.05l-5.51-19.25h4.31L37.45,116.037L37.45,116.037z"/>
<path fill="#343434" d="M55.04,117.388h-5.3l-1.04,3.939h-4.109l6.02-19.25h3.56l6.05,19.25H56.07L55.04,117.388z M50.58,114.147
	h3.601l-1.801-6.86L50.58,114.147z"/>
<path fill="#343434" d="M10.94,140.856h-5.3l-1.03,3.941H0.5l6.02-19.25h3.56l6.06,19.25h-4.17L10.94,140.856z M6.48,137.617h3.6
	l-1.8-6.86L6.48,137.617z"/>
<path fill="#343434" d="M21.98,144.798h-3.89v-19.25h3.89V144.798z"/>
<path fill="#343434" d="M29.13,141.567h6.82v3.23H25.24v-19.25h3.89V141.567z"/>
<path fill="#343434" d="M48.14,136.468h-6.06v5.1h7.17v3.23H38.2v-19.25h11.029v3.239h-7.139v4.55h6.059v3.131H48.14z"/>
<path fill="#343434" d="M61.431,136.468H55.37v5.1h7.17v3.23H51.49v-19.25h11.03v3.239h-7.15v4.55h6.061V136.468z"/>
<path fill="#343434" d="M78.229,144.798h-3.889l-5.681-12.631v12.631h-3.89v-19.25h3.89l5.7,12.639v-12.639h3.869V144.798z"/>
<path fill="#C5C5C5" d="M62.551,116.177c0-1.133,0.276-2.109,0.828-2.93c0.551-0.82,1.394-1.677,2.526-2.569
	c-0.595-0.902-1.036-1.721-1.324-2.454c-0.288-0.734-0.432-1.485-0.432-2.253c0-1.642,0.473-2.963,1.418-3.966
	c0.945-1.003,2.205-1.505,3.778-1.505c1.363,0,2.479,0.473,3.347,1.418c0.868,0.945,1.303,2.09,1.303,3.434
	c0,0.931-0.209,1.782-0.626,2.555s-0.981,1.442-1.691,2.009l-1.166,0.936l3.311,4.376l0.086-0.015
	c0.259-0.499,0.463-1.062,0.612-1.691c0.148-0.628,0.223-1.293,0.223-1.993h2.994c0,1.324-0.142,2.535-0.425,3.634
	c-0.283,1.1-0.727,2.076-1.332,2.93l2.792,3.671H74.14l-0.921-1.209c-0.72,0.509-1.452,0.888-2.195,1.137
	c-0.744,0.25-1.543,0.375-2.397,0.375c-1.852,0-3.328-0.543-4.426-1.627C63.101,119.353,62.551,117.933,62.551,116.177z
	 M68.871,118.796c0.422,0,0.844-0.058,1.267-0.172c0.422-0.115,0.83-0.293,1.224-0.533l-3.729-4.952l-0.101,0.087
	c-0.336,0.461-0.564,0.909-0.684,1.346s-0.18,0.886-0.18,1.346c0,0.835,0.208,1.524,0.626,2.066S68.237,118.796,68.871,118.796z
	 M67.791,105.919c0,0.396,0.084,0.8,0.252,1.214c0.168,0.413,0.42,0.866,0.756,1.356l0.85-0.635c0.479-0.347,0.801-0.7,0.964-1.062
	c0.163-0.36,0.245-0.758,0.245-1.191c0-0.481-0.142-0.907-0.425-1.277c-0.283-0.371-0.65-0.557-1.101-0.557
	c-0.499,0-0.88,0.205-1.145,0.614S67.791,105.304,67.791,105.919z"/>
</svg>
