<svg version="1.1" id="Ebene_1" xmlns="http://www.w3.org/2000/svg" xmlns:xlink="http://www.w3.org/1999/xlink" x="0px" y="0px"
	 width="100px" height="82px" viewBox="0 0 100 82" enable-background="new 0 0 100 82" xml:space="preserve">
<polygon fill="#262626" points="20.438,28.395 24.943,52.573 21.333,52.573 18.98,39.167 12.454,53 5.962,39.166 3.61,52.57
	0,52.57 4.505,28.394 12.452,45.029 "/>
<rect x="37.265" y="28.395" fill="#262626" width="3.544" height="24.146"/>
<polygon fill="#262626" points="56.477,52.604 53.131,52.604 53.131,28 68.833,46.677 68.833,28.427 72.177,28.427 72.177,52.605
	68.932,52.605 56.477,37.356 "/>
<polygon fill="#262626" points="84.499,28.395 100,28.395 100,31.789 94.003,31.789 94.003,52.507 90.492,52.507 90.492,31.787
	84.497,31.787 "/>
</svg>
